<?xml version="1.0" standalone="no"?>
<!DOCTYPE svg PUBLIC "-//W3C//DTD SVG 20010904//EN"
 "http://www.w3.org/TR/2001/REC-SVG-20010904/DTD/svg10.dtd">
<svg version="1.0" xmlns="http://www.w3.org/2000/svg"
 width="1024.000000pt" height="1024.000000pt" viewBox="0 0 1024.000000 1024.000000"
 preserveAspectRatio="xMidYMid meet">

<g transform="translate(0.000000,1024.000000) scale(0.100000,-0.100000)"
fill="#000000" stroke="none">
<path d="M5054 8474 c-62 -41 -170 -153 -223 -229 -146 -212 -235 -489 -249
-781 l-7 -130 -254 -205 c-139 -112 -262 -210 -272 -218 -18 -13 -19 -30 -19
-303 l0 -290 81 73 c142 129 312 269 384 316 67 45 141 81 149 72 1 -2 22 -56
45 -119 24 -63 61 -149 83 -190 60 -112 349 -543 357 -533 19 22 90 125 211
308 135 202 199 323 240 450 12 39 26 74 31 79 30 33 231 -114 539 -393 l70
-63 0 290 0 290 -172 144 c-95 79 -211 175 -258 213 -47 38 -89 72 -94 77 -6
4 -13 63 -17 130 -10 166 -33 291 -79 429 -71 214 -167 376 -296 498 -118 113
-178 133 -250 85z m78 -124 c4 -24 -4 -37 -44 -77 -175 -172 -327 -552 -328
-820 l0 -43 68 0 c65 0 69 -2 111 -41 52 -49 113 -78 159 -79 17 0 32 -4 32
-10 0 -15 -64 -12 -86 5 -22 17 -38 20 -29 5 3 -6 -1 -7 -9 -4 -9 3 -14 10
-11 14 3 5 -4 8 -14 7 -19 -1 -19 -3 -5 -18 9 -10 13 -22 9 -28 -4 -7 0 -8 11
-4 14 5 16 1 12 -25 -4 -27 -1 -31 25 -36 16 -3 40 -6 53 -6 13 0 25 -6 26
-12 0 -7 4 7 8 32 4 26 8 -38 8 -158 0 -121 -3 -200 -9 -197 -5 4 -9 1 -9 -4
0 -6 7 -11 17 -11 9 0 14 -2 12 -4 -2 -2 -8 -4 -12 -4 -5 0 -22 -13 -38 -28
-30 -29 -34 -26 -32 24 1 6 -3 12 -8 12 -12 0 -11 -13 1 -45 9 -23 5 -36 -22
-84 -18 -31 -43 -78 -56 -104 -14 -26 -27 -46 -29 -43 -3 3 4 20 16 39 23 37
27 52 11 42 -5 -3 -10 -2 -10 4 0 5 7 14 17 19 10 6 14 16 9 27 -3 10 -1 24 5
31 13 16 4 34 -18 34 -11 0 -14 -7 -11 -25 8 -39 -5 -29 -25 19 -15 35 -16 49
-7 66 6 11 10 31 7 43 -3 21 -4 21 -11 2 -4 -11 -12 -28 -17 -37 -16 -31 -5
-87 23 -108 19 -15 25 -57 12 -95 l-13 -40 6 38 c7 50 -13 100 -38 92 -14 -5
-19 -1 -20 12 -1 14 -2 15 -6 2 -2 -8 10 -51 27 -95 35 -92 37 -120 9 -154
l-21 -25 -18 22 c-9 12 -38 69 -63 127 -222 506 -184 1180 89 1583 53 78 112
143 168 184 44 33 61 27 68 -21z m95 -528 c117 -61 157 -215 77 -301 -13 -14
-24 -28 -24 -32 0 -3 -19 -16 -42 -29 -34 -19 -56 -24 -105 -23 -222 4 -289
283 -93 386 45 24 63 28 102 23 26 -2 64 -14 85 -24z m-134 -619 c-7 -2 -19
-2 -25 0 -7 3 -2 5 12 5 14 0 19 -2 13 -5z m17 -648 l0 -175 -25 0 -25 0 0
131 c0 115 3 137 22 175 12 24 23 44 25 44 2 0 3 -79 3 -175z m-188 105 c3
-16 3 -30 2 -30 -1 0 -9 14 -18 30 -11 24 -12 30 -1 30 7 0 15 -13 17 -30z
m28 -316 c0 -8 -4 -14 -10 -14 -5 0 -10 9 -10 21 0 11 5 17 10 14 6 -3 10 -13
10 -21z"/>
<path d="M4874 7369 c-3 -5 6 -8 20 -7 26 2 26 10 1 14 -8 1 -17 -2 -21 -7z"/>
<path d="M4782 7300 c0 -14 2 -19 5 -12 2 6 2 18 0 25 -3 6 -5 1 -5 -13z"/>
<path d="M4786 7195 c3 -33 8 -62 10 -64 9 -9 3 95 -6 109 -7 10 -8 -4 -4 -45z"/>
<path d="M4803 7023 c7 -26 25 -112 32 -155 3 -21 10 -38 16 -38 6 0 7 -5 4
-10 -4 -6 -3 -24 0 -42 5 -22 9 -27 16 -17 13 20 11 41 -3 33 -7 -4 -8 -3 -4
5 4 6 10 27 12 47 4 32 3 34 -16 24 -13 -7 -20 -7 -20 0 0 5 5 10 10 10 6 0
10 10 10 22 0 12 -3 18 -7 14 -9 -9 -33 85 -27 107 4 11 0 17 -11 17 -11 0
-15 -6 -12 -17z"/>
<path d="M4847 7023 c-10 -10 -8 -61 2 -68 5 -3 13 0 17 6 5 8 3 9 -6 4 -10
-6 -12 0 -7 28 6 38 5 42 -6 30z"/>
<path d="M4871 7014 c0 -11 3 -14 6 -6 3 7 2 16 -1 19 -3 4 -6 -2 -5 -13z"/>
<path d="M4890 6921 c0 -29 14 -49 23 -34 8 12 -4 63 -14 63 -5 0 -9 -13 -9
-29z"/>
<path d="M5070 6876 c0 -10 28 -13 41 -5 10 6 7 9 -13 9 -16 0 -28 -2 -28 -4z"/>
<path d="M5073 6835 c0 -14 2 -22 6 -18 3 4 10 10 14 14 4 3 2 11 -6 18 -12 9
-14 7 -14 -14z"/>
<path d="M4960 6831 c0 -6 5 -13 10 -16 6 -3 10 1 10 9 0 9 -4 16 -10 16 -5 0
-10 -4 -10 -9z"/>
<path d="M5220 7801 c13 -9 13 -11 -2 -11 -9 0 -20 -4 -23 -10 -4 -6 2 -7 14
-2 23 8 28 25 9 30 -9 2 -8 0 2 -7z"/>
<path d="M5106 7778 c5 -7 2 -9 -8 -6 -8 4 -21 2 -29 -4 -11 -7 -9 -8 6 -3 15
4 17 3 9 -5 -8 -8 -6 -18 10 -35 26 -29 42 -21 21 11 -15 23 -12 29 9 25 5 -1
4 5 -4 13 -15 19 -24 21 -14 4z"/>
<path d="M5218 7763 c7 -3 16 -2 19 1 4 3 -2 6 -13 5 -11 0 -14 -3 -6 -6z"/>
<path d="M5291 7714 c10 -13 10 -17 -2 -25 -9 -5 -10 -9 -2 -9 6 0 14 4 17 9
8 12 -4 41 -16 41 -6 0 -5 -7 3 -16z"/>
<path d="M5210 7711 c0 -11 26 -22 34 -14 12 12 5 23 -14 23 -11 0 -20 -4 -20
-9z"/>
<path d="M5080 7670 c0 -5 5 -10 11 -10 5 0 7 5 4 10 -3 6 -8 10 -11 10 -2 0
-4 -4 -4 -10z"/>
<path d="M5019 7613 c0 -5 -2 -18 -5 -31 -2 -14 0 -21 6 -17 5 3 11 16 11 28
1 16 3 17 6 5 2 -9 -1 -27 -8 -40 -12 -22 -11 -22 6 -8 10 8 16 10 12 3 -4 -6
-3 -14 3 -18 15 -9 12 -28 -2 -19 -7 4 -2 -5 11 -19 19 -21 27 -24 38 -15 7 6
16 8 20 4 3 -3 1 -6 -5 -6 -7 0 -12 -6 -12 -13 0 -9 17 -14 56 -16 37 -1 54 1
49 8 -3 6 0 11 8 11 8 0 23 8 35 18 19 17 19 19 4 29 -15 10 -15 12 -1 12 8 1
20 -4 26 -10 8 -8 15 -2 27 22 9 18 16 35 16 39 0 7 -2 8 -72 16 -46 6 -48 5
-48 -20 0 -23 -4 -26 -34 -26 -19 0 -36 6 -39 13 -4 10 -7 10 -18 0 -22 -22
-39 -15 -55 22 -13 31 -33 47 -35 28z m281 -49 c0 -8 -4 -12 -10 -9 -5 3 -10
10 -10 16 0 5 5 9 10 9 6 0 10 -7 10 -16z m-180 -54 c3 -1 -6 -6 -19 -11 -26
-10 -37 -6 -27 9 5 9 21 9 46 2z m105 -28 c-3 -3 -11 0 -18 7 -9 10 -8 11 6 5
10 -3 15 -9 12 -12z"/>
<path d="M6804 6747 c-56 -115 -176 -340 -289 -547 -62 -113 -149 -276 -193
-363 -44 -88 -82 -155 -85 -150 -3 4 -18 33 -35 63 -25 48 -141 249 -192 333
l-17 28 -40 -63 c-22 -35 -59 -99 -83 -142 -23 -44 -85 -154 -137 -245 -53
-91 -125 -218 -161 -281 -35 -63 -74 -128 -87 -145 -44 -57 -158 -166 -165
-158 -5 4 -51 82 -103 173 -186 323 -282 483 -292 486 -5 2 -37 -46 -69 -106
-53 -98 -276 -463 -295 -483 -4 -4 -99 153 -211 350 -245 432 -274 483 -293
507 -13 18 -15 14 -27 -47 -19 -103 -46 -152 -451 -824 l-134 -223 -48 0 -49
0 20 33 c101 166 542 928 542 936 0 4 -28 39 -62 77 -87 97 -353 405 -418 483
l-54 65 -12 -30 c-7 -16 -11 -38 -8 -49 4 -14 3 -16 -4 -7 -6 9 -24 -18 -62
-90 -29 -57 -81 -152 -115 -213 -66 -115 -98 -174 -148 -265 -16 -30 -88 -158
-160 -285 -72 -126 -131 -238 -131 -247 0 -9 -2 -15 -5 -13 -2 3 -10 -3 -17
-13 -11 -15 -49 -18 -421 -23 -402 -6 -409 -6 -508 -33 -116 -31 -263 -98
-350 -161 -34 -24 -94 -76 -135 -117 -200 -200 -307 -442 -326 -739 -35 -542
300 -1025 848 -1224 185 -67 185 -67 848 -75 520 -6 613 -9 661 -23 86 -26
168 -65 234 -112 33 -23 259 -241 502 -484 244 -242 471 -462 505 -487 146
-108 304 -162 494 -171 236 -11 427 41 604 165 36 25 271 249 530 507 256 254
479 471 497 483 51 36 147 81 210 99 50 14 140 17 658 23 666 8 641 5 870 81
307 102 552 305 704 582 143 262 180 610 96 902 -114 394 -436 688 -840 766
-87 18 -149 20 -479 22 l-380 2 -121 285 c-367 859 -426 994 -531 1216 -24 50
-44 43 -80 -29z m23 -334 c-2 -16 -4 -5 -4 22 0 28 2 40 4 28 2 -13 2 -35 0
-50z m-3527 -487 c0 -2 -8 -10 -17 -17 -16 -13 -17 -12 -4 4 13 16 21 21 21
13z m-150 -160 c0 -2 -8 -10 -17 -17 -16 -13 -17 -12 -4 4 13 16 21 21 21 13z
m2790 -160 c0 -2 -8 -10 -17 -17 -16 -13 -17 -12 -4 4 13 16 21 21 21 13z
m-1033 -78 c-3 -8 -6 -5 -6 6 -1 11 2 17 5 13 3 -3 4 -12 1 -19z m913 -22 c0
-2 -8 -10 -17 -17 -16 -13 -17 -12 -4 4 13 16 21 21 21 13z m-1030 -330 c0 -2
-8 -10 -17 -17 -16 -13 -17 -12 -4 4 13 16 21 21 21 13z m3440 -24 c0 -36 31
-139 61 -200 22 -44 46 -75 81 -102 27 -22 53 -40 58 -40 4 0 25 -7 46 -16
l38 -16 -69 -33 c-116 -53 -171 -129 -190 -258 -11 -71 -21 -65 -29 16 -6 64
-17 123 -32 166 -3 9 -32 -21 -77 -79 -39 -51 -138 -177 -219 -278 l-148 -186
0 -253 0 -253 -140 0 -140 0 0 261 0 260 -42 62 c-162 240 -382 547 -389 540
-4 -4 -31 -41 -61 -81 l-53 -73 -235 -2 c-245 -3 -258 -5 -307 -50 -25 -22
-31 -74 -13 -107 16 -30 64 -39 246 -49 150 -7 178 -12 225 -33 133 -61 204
-201 179 -352 -14 -85 -51 -155 -118 -218 -68 -65 -135 -101 -240 -131 -72
-19 -106 -21 -518 -25 l-442 -3 -53 105 -54 106 -223 0 -222 0 19 38 c11 20
44 78 74 127 l54 90 77 3 c42 2 76 6 76 10 0 4 -24 56 -53 116 l-53 109 -48
-94 c-27 -52 -68 -128 -91 -169 -23 -41 -60 -109 -83 -150 -22 -41 -67 -122
-99 -180 l-58 -105 -279 0 -278 0 -55 103 -55 102 -257 0 -258 0 -57 -105 -57
-105 -169 0 -168 0 50 88 c107 184 291 506 413 722 70 124 155 273 188 333 34
59 64 107 67 107 7 0 84 -142 375 -690 239 -449 252 -473 258 -463 59 100 260
453 382 668 224 398 278 486 286 478 8 -8 200 -367 399 -743 62 -118 131 -246
152 -283 l39 -68 22 28 c11 15 38 48 60 71 l39 44 262 -1 c143 -1 279 3 300 8
75 18 116 68 102 124 -11 46 -52 57 -249 72 -166 13 -185 16 -242 44 -64 32
-105 74 -146 151 -21 39 -24 59 -24 145 0 95 2 103 34 162 39 73 118 151 188
186 104 53 134 56 597 57 l428 2 35 -49 c19 -26 89 -128 155 -225 65 -98 122
-178 126 -177 4 0 71 87 150 193 134 180 146 193 186 204 55 14 130 82 162
143 13 27 38 87 55 134 29 80 49 107 49 67z m-6570 -149 c0 -11 -30 -37 -77
-68 -201 -131 -347 -343 -399 -583 -26 -115 -23 -303 5 -412 46 -178 139 -344
263 -469 126 -128 269 -210 473 -269 l90 -26 534 -4 c517 -3 599 -8 560 -33
-8 -5 -240 -9 -515 -9 -611 0 -670 7 -880 105 -128 59 -205 114 -309 220 -160
163 -252 361 -286 612 -27 204 48 474 186 669 57 80 186 200 266 247 71 41 89
45 89 20z m1760 -149 c0 -3 -41 -65 -90 -137 l-90 -132 -238 0 c-256 -1 -291
-7 -326 -56 -22 -32 -20 -85 3 -108 25 -25 52 -30 251 -40 200 -11 245 -25
312 -93 75 -77 108 -189 88 -299 -23 -128 -108 -236 -234 -298 -120 -59 -161
-64 -590 -68 -321 -4 -387 -2 -380 9 18 30 184 245 202 262 19 16 43 18 294
17 150 -1 291 3 312 8 74 18 116 68 103 123 -13 49 -44 58 -240 73 -110 8
-200 20 -229 30 -68 24 -132 85 -170 163 -29 59 -33 76 -33 147 0 71 4 89 32
145 61 123 172 209 318 246 51 13 705 20 705 8z m1995 -1578 c44 -44 86 -81
93 -82 8 -2 10 2 5 9 -4 7 -7 26 -7 42 1 17 2 51 3 77 1 45 2 47 29 44 l27 -3
3 -157 3 -157 -23 12 c-13 7 -58 48 -101 92 -56 57 -81 77 -89 69 -6 -6 -11
-43 -12 -84 -1 -72 -1 -73 -28 -76 l-28 -3 0 161 0 161 23 -12 c12 -7 58 -48
102 -93z m-1225 -31 l5 -120 73 -3 c55 -2 72 -6 72 -17 0 -8 -4 -15 -10 -15
-5 0 -7 -7 -4 -15 5 -13 -9 -15 -95 -15 l-101 0 0 156 0 155 28 -3 27 -3 5
-120z m672 38 c22 -49 51 -111 64 -140 31 -67 31 -83 -2 -83 -19 0 -28 7 -35
30 -11 30 -12 30 -84 30 -71 0 -73 -1 -85 -30 -10 -24 -19 -30 -41 -30 -18 0
-29 5 -29 14 0 15 116 263 132 284 22 27 40 10 80 -75z m1270 55 c103 -58 104
-204 1 -256 -27 -14 -62 -20 -120 -21 l-83 -2 0 149 c0 82 3 151 6 155 3 3 39
4 80 2 54 -3 86 -10 116 -27z m2465 -34 c-3 -3 -12 -4 -19 -1 -8 3 -5 6 6 6
11 1 17 -2 13 -5z m-71 -45 c-86 -42 -166 -68 -184 -62 -10 4 -13 2 -8 -5 5
-8 -2 -10 -24 -6 -19 4 -30 2 -30 -5 0 -6 -4 -11 -10 -11 -16 0 -11 17 7 24 9
4 32 9 52 12 20 3 41 10 47 15 7 5 25 11 40 13 46 6 145 47 139 57 -4 5 2 6
11 2 13 -5 3 -13 -40 -34z m-282 -87 c2 -4 -10 -9 -27 -9 -26 -2 -28 0 -12 7
26 11 33 12 39 2z m-4406 -24 c3 -17 -16 -18 -297 -18 -189 0 -302 4 -306 10
-17 27 15 30 303 28 273 -3 297 -4 300 -20z m2782 3 c0 -4 -34 -9 -75 -10 -41
-1 -75 2 -75 6 0 4 34 9 75 10 41 2 75 -1 75 -6z m1544 -3 c-7 -12 -1522 -10
-1529 2 -4 7 249 9 764 8 423 -1 767 -6 765 -10z m-4107 -323 c3 -9 3 -18 0
-21 -8 -8 -275 -9 -283 -1 -3 3 -4 13 -1 22 9 23 275 23 284 0z m2188 -5 c10
-32 -37 -122 -81 -157 -21 -17 -64 -43 -94 -59 l-55 -28 -360 -8 c-198 -4
-561 -5 -807 -2 -428 6 -448 8 -448 25 0 18 25 19 775 19 773 0 775 0 842 22
54 18 80 34 126 78 31 31 57 63 57 71 0 13 -102 14 -855 11 -908 -5 -1185 1
-1185 23 0 7 6 16 13 18 6 3 474 6 1039 6 1020 1 1027 1 1033 -19z m-1947
-232 c3 -17 -11 -18 -187 -18 -153 0 -191 3 -191 13 0 8 3 17 7 21 4 3 88 5
187 4 163 -3 181 -5 184 -20z m1299 -204 c-3 -3 -12 -4 -19 -1 -8 3 -5 6 6 6
11 1 17 -2 13 -5z m-332 -14 c12 -5 -27 -8 -105 -7 -122 1 -123 1 -40 7 47 3
94 7 105 7 11 1 29 -2 40 -7z m125 0 c0 -5 -21 -10 -47 -10 -35 0 -44 3 -33
10 20 13 80 13 80 0z m-403 -6 c-3 -3 -12 -4 -19 -1 -8 3 -5 6 6 6 11 1 17 -2
13 -5z m-322 -214 c0 -13 -21 -15 -130 -15 -116 0 -130 2 -133 18 -3 16 6 17
130 15 110 -3 133 -6 133 -18z m360 0 c38 -6 18 -8 -87 -9 -82 0 -139 3 -143
9 -7 12 154 12 230 0z m535 -33 c0 -2 -10 -12 -22 -23 l-23 -19 19 23 c18 21
26 27 26 19z m-64 -76 c-1 -23 -62 -74 -126 -106 -96 -48 -149 -60 -270 -60
-100 0 -125 4 -197 28 -89 31 -96 36 -83 56 6 11 22 9 82 -13 89 -34 201 -44
290 -26 71 13 184 59 241 96 21 14 42 22 48 19 5 -4 9 -3 8 2 -2 11 0 23 5 23
2 0 3 -9 2 -19z"/>
<path d="M3991 4223 c-76 -146 -81 -133 53 -133 l116 0 -10 24 c-14 37 -100
206 -105 206 -2 0 -27 -44 -54 -97z"/>
<path d="M5521 3344 c0 -11 3 -14 6 -6 3 7 2 16 -1 19 -3 4 -6 -2 -5 -13z"/>
<path d="M4172 3330 c0 -19 2 -27 5 -17 2 9 2 25 0 35 -3 9 -5 1 -5 -18z"/>
<path d="M4173 3115 c0 -8 7 -15 15 -15 12 0 12 3 2 15 -7 8 -13 15 -15 15 -1
0 -2 -7 -2 -15z"/>
<path d="M4801 3321 c-8 -5 -11 -16 -8 -26 4 -9 3 -14 -3 -10 -6 3 -10 -4 -10
-17 0 -18 2 -20 10 -8 15 23 12 6 -6 -28 -19 -39 -12 -52 27 -52 33 0 34 1 15
39 -9 16 -13 45 -10 69 2 23 3 42 1 42 -1 0 -8 -4 -16 -9z"/>
<path d="M5983 3335 c-7 -8 -12 -31 -11 -52 1 -37 1 -37 5 -5 2 17 8 32 14 32
5 0 18 9 29 20 l20 20 -22 0 c-13 -1 -29 -7 -35 -15z"/>
<path d="M6000 3216 c0 -88 -6 -120 -21 -110 -5 3 -9 1 -9 -5 0 -19 19 -21 25
-3 4 14 19 21 57 25 63 8 95 37 91 82 -5 65 -39 95 -109 95 l-34 0 0 -84z"/>
<path d="M6136 3272 c-3 -5 1 -9 9 -9 8 0 12 4 9 9 -3 4 -7 8 -9 8 -2 0 -6 -4
-9 -8z"/>
<path d="M6166 3243 c-6 -14 -5 -15 5 -6 7 7 10 15 7 18 -3 3 -9 -2 -12 -12z"/>
<path d="M6175 3170 c-3 -5 1 -10 9 -10 9 0 16 5 16 10 0 6 -4 10 -9 10 -6 0
-13 -4 -16 -10z"/>
<path d="M6110 3113 c-8 -2 -21 -7 -29 -9 -10 -3 -11 -8 -4 -15 12 -12 56 -2
48 11 -3 5 1 11 7 13 17 7 -2 7 -22 0z m-3 -19 c-3 -3 -12 -4 -19 -1 -8 3 -5
6 6 6 11 1 17 -2 13 -5z"/>
<path d="M1486 6069 c-18 -111 -97 -207 -209 -253 -45 -18 -55 -25 -37 -26 36
-2 106 -32 145 -63 36 -29 105 -155 105 -193 0 -13 5 -24 10 -24 6 0 10 11 10
24 0 13 16 55 36 95 40 81 100 135 171 154 24 6 43 14 43 17 0 3 -25 16 -55
28 -29 13 -72 42 -94 64 -41 42 -87 127 -98 180 -9 43 -20 42 -27 -3z"/>
<path d="M8731 5952 c-22 -104 -67 -161 -163 -207 l-68 -33 38 -7 c92 -16 148
-64 186 -160 l22 -52 18 43 c10 24 31 61 47 83 29 41 119 101 152 101 32 0 17
15 -31 32 -81 29 -145 107 -177 213 l-12 40 -12 -53z"/>
</g>
</svg>
