<?xml version="1.0" standalone="no"?>
<!DOCTYPE svg PUBLIC "-//W3C//DTD SVG 20010904//EN"
 "http://www.w3.org/TR/2001/REC-SVG-20010904/DTD/svg10.dtd">
<svg version="1.0" xmlns="http://www.w3.org/2000/svg"
 width="500.000000pt" height="500.000000pt" viewBox="0 0 500.000000 500.000000"
 preserveAspectRatio="xMidYMid meet">

<g transform="translate(0.000000,500.000000) scale(0.100000,-0.100000)"
fill="#000000" stroke="none">
<path d="M2609 4986 c7 -8 8 -17 3 -20 -10 -6 -10 -45 1 -62 4 -8 -15 -13 -61
-18 -152 -14 -303 -85 -407 -190 -92 -93 -160 -187 -181 -248 -4 -10 -10 -18
-15 -18 -5 0 -9 -9 -9 -19 0 -28 -29 -35 -39 -10 l-7 21 -25 -23 c-46 -46 -54
-69 -56 -176 -2 -62 1 -103 7 -103 6 0 9 -3 8 -7 -4 -17 14 -73 23 -73 6 0 7
-5 4 -10 -7 -12 12 -71 36 -115 10 -16 34 -61 54 -100 21 -38 54 -90 74 -114
20 -25 38 -50 41 -57 7 -17 108 -133 143 -164 15 -14 63 -59 106 -100 43 -41
100 -93 126 -115 26 -22 70 -60 99 -84 92 -79 101 -86 141 -116 48 -36 70 -54
100 -80 13 -11 67 -56 120 -100 54 -44 114 -96 134 -115 36 -35 185 -170 208
-190 15 -13 23 -13 23 0 0 10 -16 31 -58 79 -13 14 -27 30 -30 36 -4 5 -45 44
-91 85 -46 41 -96 86 -111 100 -14 14 -42 37 -61 52 -89 69 -237 190 -264 216
-16 15 -50 43 -75 62 -105 80 -287 250 -411 386 -79 87 -162 230 -193 333 -18
62 -17 72 9 89 19 12 19 13 -5 8 l-25 -6 25 13 c14 7 26 18 28 26 3 12 1 12
-15 0 -16 -12 -17 -12 -5 2 7 10 13 59 16 130 2 89 9 132 30 196 15 45 31 85
36 88 6 3 10 15 10 26 0 10 4 19 8 19 4 0 16 15 26 33 23 39 164 179 203 201
131 71 221 104 337 125 87 16 311 14 404 -4 101 -19 292 -103 292 -128 0 -9
-2 -7 -60 28 -52 32 -157 72 -225 85 -74 14 -258 23 -251 12 3 -5 19 -7 35 -6
17 1 34 -2 37 -7 3 -5 9 -7 13 -5 4 3 8 -9 9 -25 1 -16 -2 -29 -8 -29 -5 0
-10 -7 -10 -16 0 -9 5 -12 13 -8 10 6 10 4 0 -7 -7 -7 -13 -19 -13 -27 0 -8 5
-10 13 -6 10 6 10 4 0 -7 -7 -7 -13 -21 -13 -30 0 -10 -7 -16 -17 -15 -19 1
-25 -22 -11 -41 6 -7 4 -14 -3 -19 -8 -5 -9 -3 -4 6 5 9 4 11 -3 6 -7 -4 -12
-13 -12 -21 0 -8 -5 -17 -12 -21 -7 -5 -8 -3 -3 6 5 9 4 11 -3 6 -7 -4 -12
-13 -12 -20 0 -6 -6 -18 -12 -24 -7 -7 -13 -18 -13 -25 0 -7 -10 -11 -23 -11
-23 1 -30 -20 -10 -32 7 -5 8 -3 3 6 -6 9 -4 11 4 5 10 -5 7 -13 -10 -30 -13
-12 -27 -21 -30 -19 -4 2 -10 -3 -13 -12 -4 -12 -2 -15 9 -10 8 3 15 1 15 -4
0 -9 -12 -13 -30 -12 -3 0 -7 -11 -8 -24 -1 -18 2 -23 11 -18 8 6 8 3 -1 -9
-8 -9 -19 -15 -25 -14 -6 1 -12 -4 -13 -10 -1 -7 -3 -15 -4 -18 -6 -13 -5 -31
2 -42 6 -7 3 -15 -9 -22 -10 -6 -12 -11 -5 -11 6 0 11 -5 10 -12 -5 -19 -32
-45 -43 -40 -5 3 -5 0 1 -7 6 -6 19 -9 28 -5 14 5 15 9 4 15 -9 6 -9 9 -1 9
17 0 25 -17 13 -25 -8 -5 -7 -12 2 -23 7 -10 8 -14 4 -10 -11 9 -36 -10 -36
-26 0 -6 5 -4 10 4 8 13 10 12 10 -3 0 -10 4 -16 9 -13 17 11 5 -26 -12 -39
-19 -14 -23 -30 -5 -19 7 4 8 3 4 -5 -4 -6 -1 -23 8 -36 13 -20 13 -25 1 -35
-19 -16 -19 -34 -1 -27 14 5 16 -8 5 -28 -8 -14 16 -57 26 -47 5 4 5 2 1 -5
-3 -6 -2 -14 3 -17 5 -3 7 -16 3 -28 -4 -16 -2 -19 9 -13 12 7 12 6 1 -7 -9
-12 -10 -18 -2 -23 8 -5 8 -11 -1 -21 -9 -11 -9 -14 1 -14 7 0 10 -7 6 -16 -3
-8 -2 -12 3 -9 5 3 12 1 15 -4 4 -5 2 -12 -3 -15 -13 -8 11 -56 28 -56 8 0 12
-3 9 -6 -4 -3 0 -17 8 -32 9 -19 10 -30 2 -39 -8 -10 -6 -13 6 -13 9 0 15 -6
13 -12 -1 -7 3 -12 9 -11 6 1 11 -4 11 -12 0 -8 -4 -12 -8 -10 -4 3 -6 -3 -4
-12 2 -10 4 -20 4 -23 1 -3 6 2 11 10 8 11 9 8 4 -12 -4 -21 -1 -27 16 -33 12
-4 19 -9 16 -12 -3 -4 -1 -12 5 -20 6 -7 8 -13 4 -13 -4 0 -1 -8 6 -17 12 -15
12 -16 -1 -8 -8 4 -4 -4 10 -20 14 -16 20 -25 13 -21 -9 5 -8 -1 2 -20 7 -14
12 -35 10 -45 -2 -11 -1 -18 3 -15 4 2 12 -2 19 -9 9 -10 7 -17 -8 -33 -19
-22 -27 -48 -10 -37 5 3 13 1 16 -5 4 -6 1 -9 -6 -8 -7 2 -14 -6 -16 -17 -1
-11 0 -14 3 -7 3 6 10 12 16 12 6 0 4 -8 -5 -18 -10 -10 -17 -24 -17 -31 0 -8
-12 -4 -32 10 -46 31 -20 6 107 -101 129 -110 192 -167 297 -267 44 -43 79
-69 83 -63 3 6 11 7 17 4 6 -4 8 -2 4 4 -3 6 -2 13 2 16 5 3 12 38 16 78 11
123 18 172 26 188 10 17 14 -6 31 -165 11 -105 22 -141 39 -130 5 3 14 0 22
-7 7 -7 20 -14 28 -16 8 -2 17 -7 20 -10 3 -4 14 -12 24 -18 11 -6 24 -19 30
-29 26 -45 74 -95 90 -95 6 0 46 7 89 15 92 18 87 17 87 7 0 -5 -23 -19 -52
-33 -28 -13 -69 -37 -91 -52 -34 -25 -38 -33 -34 -60 2 -18 0 -43 -6 -57 -5
-14 -11 -34 -12 -44 -1 -10 -9 -24 -19 -31 -15 -11 -13 -23 19 -150 46 -182
46 -200 0 -148 -46 52 -49 57 -52 75 -3 20 -14 35 -53 73 -31 31 -42 32 -31 3
19 -52 -13 -439 -44 -523 -40 -110 -72 -185 -87 -207 -10 -14 -18 -33 -18 -41
0 -9 -4 -17 -8 -19 -4 -1 -29 -33 -55 -69 -40 -57 -122 -138 -164 -162 -7 -5
-5 8 5 35 9 24 20 45 24 46 5 2 6 8 2 13 -3 5 -1 9 5 9 5 0 10 8 10 18 1 26 7
54 19 84 37 89 37 230 2 368 -6 25 -13 54 -15 65 -6 39 -54 147 -78 178 -8 9
-20 17 -26 17 -7 0 -11 8 -10 18 4 25 -10 59 -26 66 -8 3 -15 10 -15 16 0 18
-58 98 -119 163 -126 137 -316 319 -324 311 -2 -2 -19 12 -37 31 -19 19 -37
35 -41 35 -7 0 -73 57 -130 111 -9 9 -23 21 -32 25 -70 41 -375 330 -473 449
-81 98 -204 321 -204 370 0 12 -5 26 -12 33 -7 7 -9 12 -6 12 4 0 3 14 -2 31
-17 58 -25 173 -23 325 1 134 5 160 28 230 29 89 63 158 117 239 14 22 58 71
97 109 39 38 71 73 71 77 0 4 16 24 35 45 32 34 43 54 29 54 -7 0 -44 -20 -63
-34 -39 -29 -199 -196 -226 -235 -45 -65 -73 -113 -85 -141 -6 -13 -29 -61
-51 -106 -21 -45 -39 -86 -39 -92 0 -5 -6 -12 -14 -15 -7 -3 -16 -20 -20 -37
-4 -23 -10 -31 -21 -26 -8 3 -15 2 -16 -2 0 -4 -3 -18 -7 -32 -4 -14 -6 -101
-6 -195 1 -142 5 -183 23 -250 22 -81 133 -325 148 -325 4 0 14 -13 21 -28 31
-72 254 -310 437 -467 32 -27 63 -54 69 -60 6 -5 31 -26 56 -46 25 -21 63 -53
85 -73 22 -20 43 -36 46 -36 4 0 21 -12 37 -27 17 -16 52 -46 78 -68 27 -22
82 -73 123 -112 42 -40 78 -73 80 -73 10 0 60 -64 56 -71 -3 -4 0 -11 6 -15 8
-4 9 -3 5 4 -4 7 -2 12 3 12 6 0 11 -7 11 -15 0 -8 5 -15 11 -15 5 0 7 -4 4
-10 -3 -5 -1 -10 6 -10 7 0 9 -3 6 -6 -4 -4 3 -20 15 -37 12 -17 16 -27 8 -22
-10 6 -11 4 -4 -6 9 -15 11 -20 13 -45 0 -8 5 -13 10 -10 5 4 7 -3 4 -14 -3
-11 -10 -17 -17 -13 -7 4 -6 1 1 -9 7 -8 11 -17 8 -20 -3 -2 2 -5 10 -5 12 0
12 3 2 16 -11 14 -10 14 6 2 20 -15 24 -46 5 -35 -10 6 -10 4 -2 -7 12 -16 12
-29 1 -46 -4 -6 -3 -15 3 -18 8 -5 7 -11 -1 -22 -10 -12 -10 -16 1 -23 7 -4
10 -15 6 -25 -5 -13 -2 -16 9 -11 13 4 14 2 5 -14 -6 -11 -13 -20 -16 -20 -3
0 -2 6 2 12 4 7 3 9 -1 5 -16 -14 -14 -36 3 -30 12 5 14 1 10 -15 -4 -12 -3
-22 1 -22 9 0 7 -37 -2 -46 -4 -4 -2 -13 4 -20 7 -9 7 -19 -1 -34 -9 -17 -9
-25 1 -34 9 -8 10 -8 4 3 -5 8 -4 12 2 8 5 -3 8 -24 6 -47 -2 -31 0 -40 9 -35
7 4 6 1 -3 -7 -18 -15 -14 -42 4 -32 8 5 8 2 0 -7 -7 -7 -13 -19 -13 -27 0 -8
5 -10 13 -6 10 6 10 4 0 -7 -7 -7 -13 -19 -13 -27 0 -8 5 -10 13 -6 13 9 -11
-26 -28 -38 -6 -5 -4 -8 5 -8 12 0 15 -9 12 -41 -4 -33 -2 -40 9 -34 11 6 12
5 2 -6 -7 -7 -13 -19 -13 -27 0 -8 5 -10 13 -6 9 6 9 5 1 -7 -7 -8 -12 -25
-13 -39 0 -14 -2 -36 -3 -50 -2 -17 1 -24 11 -22 12 3 12 1 0 -15 -8 -10 -18
-21 -24 -25 -6 -5 -5 -8 3 -8 19 0 15 -18 -14 -58 l-26 -37 37 40 c43 46 113
152 139 210 10 22 27 57 37 78 10 21 19 44 19 52 0 9 6 12 15 9 18 -7 20 -30
3 -37 -10 -4 -10 -8 -1 -14 14 -10 10 -87 -8 -128 -7 -16 -13 -32 -13 -35 -3
-17 -98 -170 -110 -177 -7 -4 -16 -19 -20 -33 -6 -23 -6 -23 7 -7 8 9 18 17
23 17 19 0 169 153 166 168 -3 14 -2 14 14 1 11 -8 15 -9 10 -1 -5 8 0 12 15
12 21 0 128 101 186 176 36 48 95 145 129 214 15 30 30 57 34 60 3 3 12 21 20
40 20 52 32 65 42 47 11 -20 -6 -105 -33 -164 -36 -83 -63 -138 -71 -148 -5
-5 -26 -37 -47 -71 -50 -78 -195 -230 -285 -298 -94 -71 -243 -155 -336 -190
-41 -16 -100 -39 -130 -51 -30 -13 -75 -29 -100 -37 l-45 -13 44 -5 c31 -4 45
-10 47 -22 2 -17 -4 -17 -66 1 -19 6 -61 11 -92 11 l-58 0 0 -181 0 -180 88 4
c48 2 97 6 109 10 21 6 25 -6 10 -30 -4 -6 -3 -14 3 -18 6 -4 7 -12 3 -18 -11
-17 -11 -57 -1 -63 4 -3 5 -11 1 -17 -11 -17 -11 -57 -1 -63 4 -3 6 -10 3 -15
-4 -5 454 -9 1189 -9 l1196 0 0 2500 0 2500 -1201 0 c-1026 0 -1200 -2 -1190
-14z m1089 -142 c138 -53 287 -130 395 -204 42 -29 79 -55 81 -59 2 -3 -2 -17
-10 -31 -7 -14 -13 -19 -14 -12 0 18 -34 15 -57 -5 -11 -10 -34 -54 -52 -97
-18 -44 -37 -87 -41 -95 -27 -52 -70 -154 -70 -164 0 -7 -4 -17 -8 -22 -5 -6
-23 -44 -40 -85 -17 -41 -47 -106 -66 -145 -34 -65 -35 -67 -30 -30 8 51 11
81 13 127 0 20 7 43 14 50 18 20 67 121 67 140 0 9 4 20 10 23 7 5 26 54 35
95 0 3 8 19 17 35 9 17 18 39 20 50 1 11 6 22 10 25 4 3 9 16 10 29 5 37 -29
36 -49 -2 -9 -18 -18 -36 -19 -42 -14 -55 -61 -145 -75 -145 -6 0 -7 -6 -3
-12 6 -10 4 -10 -8 0 -8 7 -19 31 -23 55 -5 23 -9 44 -10 47 -1 3 -7 18 -13
33 -7 16 -12 32 -12 37 0 15 -78 165 -98 188 -10 12 -24 22 -31 22 -13 0 -14
-5 -2 -28 36 -66 94 -220 90 -238 -1 -5 1 -17 6 -27 4 -10 5 -20 2 -23 -3 -4
-2 -17 3 -30 13 -34 -2 -30 -23 6 -10 17 -15 30 -11 30 4 0 1 6 -8 13 -9 6
-28 41 -44 77 -50 116 -96 183 -183 271 -93 92 -170 148 -241 172 -44 16 -40
16 153 17 l199 0 116 -46z m-298 -146 c0 -12 -6 -9 -26 13 -19 22 -19 22 4 8
12 -8 22 -17 22 -21z m31 -35 c13 -16 12 -17 -3 -4 -17 13 -22 21 -14 21 2 0
10 -8 17 -17z m-561 -3 c0 -5 -5 -10 -11 -10 -5 0 -7 5 -4 10 3 6 8 10 11 10
2 0 4 -4 4 -10z m900 -1050 c0 -5 -2 -10 -4 -10 -3 0 -8 5 -11 10 -3 6 -1 10
4 10 6 0 11 -4 11 -10z m-2150 -107 c11 -10 20 -24 20 -31 0 -8 8 -26 18 -40
10 -15 34 -58 53 -95 18 -38 63 -108 99 -155 64 -87 262 -294 336 -353 21 -17
64 -54 95 -82 31 -29 73 -65 94 -82 32 -25 101 -82 264 -220 89 -75 338 -317
333 -323 -3 -2 75 -108 95 -130 6 -6 15 -21 18 -32 3 -11 10 -20 14 -20 12 0
43 -59 36 -70 -3 -6 -1 -10 6 -10 7 0 10 -3 6 -6 -3 -4 0 -19 8 -35 8 -15 15
-39 15 -53 0 -14 4 -27 8 -30 4 -3 6 -21 4 -40 -5 -46 -16 -38 -52 37 -17 33
-36 67 -43 76 -8 9 -24 36 -35 61 -20 41 -69 106 -177 237 -37 45 -189 189
-279 265 -22 18 -58 49 -80 69 -23 19 -108 91 -191 159 -82 68 -168 140 -189
159 -91 83 -258 256 -300 312 -109 145 -189 306 -200 406 -6 48 -5 50 24 26z
m1290 -224 c0 -5 -4 -9 -8 -9 -5 0 -9 7 -9 15 0 8 4 12 9 9 4 -3 8 -9 8 -15z
m-88 -1246 c8 -10 18 -25 22 -33 4 -8 1 -7 -7 3 -9 10 -24 25 -34 32 -10 8
-13 15 -7 15 6 0 18 -8 26 -17z m458 -1107 c0 -2 -8 -10 -17 -17 -16 -13 -17
-12 -4 4 13 16 21 21 21 13z m-70 -60 c0 -2 -8 -10 -17 -17 -16 -13 -17 -12
-4 4 13 16 21 21 21 13z m-40 -30 c0 -2 -8 -10 -17 -17 -16 -13 -17 -12 -4 4
13 16 21 21 21 13z m-61 -50 c-13 -10 -123 -77 -176 -106 -34 -19 -60 -37 -57
-42 3 -4 -2 -5 -10 -2 -8 3 -27 -1 -43 -10 -19 -10 -22 -15 -11 -16 9 0 20 5
23 10 10 16 24 11 22 -8 -1 -15 -13 -17 -86 -19 l-86 -2 50 18 c101 36 226 96
310 150 33 21 62 36 64 35 2 -2 2 -6 0 -8z m-552 -319 c58 -52 22 -167 -51
-167 -13 0 -16 16 -16 99 0 98 0 99 23 94 12 -3 32 -15 44 -26z"/>
<path d="M3476 4803 c28 -26 68 -44 174 -77 66 -21 280 -127 325 -162 31 -23
75 -33 75 -16 0 40 -337 208 -515 258 -69 19 -84 18 -59 -3z"/>
<path d="M2881 4824 c0 -11 3 -14 6 -6 3 7 2 16 -1 19 -3 4 -6 -2 -5 -13z"/>
<path d="M2620 4095 c7 -8 16 -12 21 -9 13 8 1 24 -18 24 -13 0 -13 -3 -3 -15z"/>
<path d="M1496 4014 c-9 -22 -8 -24 9 -18 8 4 15 12 15 20 0 19 -16 18 -24 -2z"/>
<path d="M2660 3850 c0 -5 5 -10 11 -10 5 0 7 5 4 10 -3 6 -8 10 -11 10 -2 0
-4 -4 -4 -10z"/>
<path d="M2730 3596 c0 -2 7 -7 16 -10 8 -3 12 -2 9 4 -6 10 -25 14 -25 6z"/>
<path d="M2881 3224 c0 -11 3 -14 6 -6 3 7 2 16 -1 19 -3 4 -6 -2 -5 -13z"/>
<path d="M2843 3146 c0 -7 6 -13 14 -13 7 0 13 4 13 8 0 4 -6 9 -13 12 -8 3
-14 0 -14 -7z"/>
<path d="M1229 1983 c-17 -4 -38 -56 -45 -111 -3 -20 -10 -43 -17 -52 -11 -13
-24 -36 -48 -80 -24 -44 -89 -194 -89 -205 0 -7 -4 -15 -8 -17 -4 -1 -23 -41
-41 -88 -36 -91 -43 -107 -117 -274 -27 -61 -49 -113 -49 -117 0 -4 -3 -10 -7
-14 -4 -4 -4 -13 -2 -20 8 -19 70 2 71 24 2 19 30 83 108 246 29 61 59 125 67
143 13 28 17 30 27 18 7 -8 13 -30 13 -48 0 -18 3 -37 6 -42 3 -6 5 -24 5 -40
0 -17 3 -35 7 -41 4 -5 11 -26 15 -45 4 -19 11 -39 15 -45 4 -5 6 -21 5 -33
-1 -13 4 -26 11 -29 8 -3 16 -21 20 -41 4 -21 29 -80 57 -132 27 -52 56 -107
64 -123 16 -30 93 -87 118 -87 13 0 9 10 -16 43 -19 23 -36 44 -39 47 -17 16
-79 153 -90 200 -8 30 -17 59 -22 65 -11 12 -10 48 1 41 11 -7 1 45 -12 64 -9
12 -9 13 3 2 8 -6 21 -12 30 -12 12 0 12 2 1 9 -11 7 -11 9 0 14 10 4 9 6 -3
6 -19 1 -25 26 -9 36 10 6 9 28 -5 195 -5 52 -8 197 -7 323 1 125 1 226 0 226
-1 -1 -9 -3 -18 -6z"/>
<path d="M2815 1791 c-3 -5 -1 -12 5 -16 5 -3 10 1 10 9 0 18 -6 21 -15 7z"/>
<path d="M915 980 c9 -10 47 -35 84 -53 91 -47 135 -71 141 -77 6 -6 70 -31
85 -33 6 -1 11 3 12 8 2 10 -72 54 -133 80 -25 10 -33 11 -29 2 4 -7 0 -4 -8
6 -8 9 -19 17 -24 17 -6 0 -16 6 -22 14 -16 19 -87 56 -108 56 -14 0 -14 -2 2
-20z"/>
<path d="M730 947 c0 -14 34 -48 60 -60 8 -4 29 -16 45 -27 50 -31 177 -103
220 -123 22 -10 58 -27 80 -37 22 -11 72 -31 110 -45 88 -32 94 -34 100 -35 3
0 21 -7 41 -15 25 -10 69 -15 138 -14 99 0 100 1 56 13 -25 7 -70 19 -100 26
-71 16 -211 64 -278 95 -29 14 -56 25 -60 25 -12 0 -205 102 -231 121 -13 11
-28 19 -33 19 -11 0 -81 51 -86 63 -6 13 -62 8 -62 -6z"/>
<path d="M1223 560 c-85 -51 -68 -144 36 -193 36 -18 46 -27 46 -47 0 -34 -43
-39 -91 -11 l-35 21 -19 -33 c-11 -17 -20 -35 -20 -38 0 -12 99 -49 130 -49
75 0 135 49 135 110 0 48 -22 73 -98 112 -42 21 -57 34 -55 46 3 13 13 17 43
16 22 0 47 -4 56 -8 11 -5 19 1 27 19 18 38 15 45 -23 61 -47 19 -94 18 -132
-6z"/>
<path d="M1760 554 c-6 -14 -10 -35 -10 -47 0 -12 -5 -79 -11 -148 l-12 -127
-54 64 -55 65 25 19 c31 24 50 78 41 114 -3 14 -20 37 -36 51 -27 23 -38 25
-119 25 l-89 0 0 -175 0 -175 45 0 44 0 3 61 3 61 45 -61 45 -60 91 -1 c104 0
103 0 104 90 1 98 11 99 45 4 30 -83 34 -89 60 -89 26 0 30 6 58 87 17 49 32
86 34 84 2 -2 7 -41 11 -87 l7 -84 43 -3 c50 -4 48 -17 27 198 -8 80 -15 148
-15 153 0 4 -20 7 -44 7 l-44 0 -39 -101 -39 -102 -34 89 c-18 49 -37 95 -43
102 -5 6 -25 12 -43 12 -28 0 -36 -5 -44 -26z m-190 -54 c5 0 14 -9 20 -20 15
-28 -4 -60 -35 -60 -23 0 -25 4 -25 46 0 38 3 45 16 40 9 -3 20 -6 24 -6z"/>
<path d="M2150 400 l0 -180 105 0 105 0 0 35 0 35 -60 0 -60 0 0 35 0 35 55 0
55 0 0 40 0 40 -55 0 c-54 0 -55 0 -55 30 l0 30 60 0 60 0 0 40 0 40 -105 0
-105 0 0 -180z"/>
</g>
</svg>
